HIERARCHY
ROOT Hips
{
	OFFSET 0.000000 103.266502 0.000000
	CHANNELS 6 Xposition Yposition Zposition Xrotation Yrotation Zrotation 
	JOINT Spine
	{
		OFFSET -0.002400 12.777504 0.315300
		CHANNELS 3 Xrotation Yrotation Zrotation
		JOINT Spine1
		{
			OFFSET -0.002067 5.816869 0.032633
			CHANNELS 3 Xrotation Yrotation Zrotation
			JOINT Spine1_split
			{
				OFFSET -0.002067 5.816869 0.032633
				CHANNELS 3 Xrotation Yrotation Zrotation
				JOINT Spine2
				{
					OFFSET -0.002067 5.816869 0.032633
					CHANNELS 3 Xrotation Yrotation Zrotation
					JOINT Neck
					{
						OFFSET -0.003700 21.199493 -0.826900
						CHANNELS 3 Xrotation Yrotation Zrotation
						JOINT Head
						{
							OFFSET 0.000000 20.442200 4.834800
							CHANNELS 3 Xrotation Yrotation Zrotation
							JOINT HeadTop_End
							{
								OFFSET 0.000000 34.668396 4.968400
								CHANNELS 3 Xrotation Yrotation Zrotation
								End Site
								{
									OFFSET 0.000000 0.000000 0.000000
								}
							}
						}
					}
					JOINT LeftShoulder
					{
						OFFSET 3.288150 8.794197 -1.372250
						CHANNELS 3 Xrotation Yrotation Zrotation
						JOINT LeftShoulder_split
						{
							OFFSET 3.288150 8.794197 -1.372250
							CHANNELS 3 Xrotation Yrotation Zrotation
							JOINT LeftArm
							{
								OFFSET 11.953299 -2.279007 -0.146200
								CHANNELS 3 Xrotation Yrotation Zrotation
								JOINT LeftForeArm
								{
									OFFSET 18.448900 0.000000 0.000000
									CHANNELS 3 Xrotation Yrotation Zrotation
									JOINT LeftHand
									{
										OFFSET 29.527798 0.000000 0.000000
										CHANNELS 3 Xrotation Yrotation Zrotation
										JOINT LeftHandThumb1
										{
											OFFSET 10.739754 -2.369614 9.225399
											CHANNELS 3 Xrotation Yrotation Zrotation
											JOINT LeftHandThumb2
											{
												OFFSET 4.926170 -2.844131 2.844125
												CHANNELS 3 Xrotation Yrotation Zrotation
												JOINT LeftHandThumb3
												{
													OFFSET 4.614891 -2.664413 2.664409
													CHANNELS 3 Xrotation Yrotation Zrotation
													JOINT LeftHandThumb4
													{
														OFFSET 4.432465 -2.559082 2.559083
														CHANNELS 3 Xrotation Yrotation Zrotation
														End Site
														{
															OFFSET 0.000000 0.000000 0.000000
														}
													}
												}
											}
										}
										JOINT LeftHandIndex1
										{
											OFFSET 26.467674 0.187653 6.405298
											CHANNELS 3 Xrotation Yrotation Zrotation
											JOINT LeftHandIndex2
											{
												OFFSET 8.792900 0.000000 0.000000
												CHANNELS 3 Xrotation Yrotation Zrotation
												JOINT LeftHandIndex3
												{
													OFFSET 10.075203 0.000000 0.000000
													CHANNELS 3 Xrotation Yrotation Zrotation
													End Site
													{
														OFFSET 0.000000 0.000000 0.000000
													}
												}
											}
										}
										JOINT LeftHandMiddle1
										{
											OFFSET 25.764404 0.000000 0.000000
											CHANNELS 3 Xrotation Yrotation Zrotation
											JOINT LeftHandMiddle2
											{
												OFFSET 9.393974 0.000000 0.000000
												CHANNELS 3 Xrotation Yrotation Zrotation
												JOINT LeftHandMiddle3
												{
													OFFSET 10.771950 0.000000 0.000000
													CHANNELS 3 Xrotation Yrotation Zrotation
													End Site
													{
														OFFSET 0.000000 0.000000 0.000000
													}
												}
											}
										}
										JOINT LeftHandRing1
										{
											OFFSET 24.660927 0.144547 -6.225808
											CHANNELS 3 Xrotation Yrotation Zrotation
											JOINT LeftHandRing2
											{
												OFFSET 9.393799 0.000000 0.000000
												CHANNELS 3 Xrotation Yrotation Zrotation
												JOINT LeftHandRing3
												{
													OFFSET 9.928497 0.000000 0.000000
													CHANNELS 3 Xrotation Yrotation Zrotation
													End Site
													{
														OFFSET 0.000000 0.000000 0.000000
													}
												}
											}
										}
										JOINT LeftHandPinky1
										{
											OFFSET 23.655350 0.125290 -12.815412
											CHANNELS 3 Xrotation Yrotation Zrotation
											JOINT LeftHandPinky2
											{
												OFFSET 8.425102 0.000000 0.000000
												CHANNELS 3 Xrotation Yrotation Zrotation
												JOINT LeftHandPinky3
												{
													OFFSET 8.147003 0.000000 0.000000
													CHANNELS 3 Xrotation Yrotation Zrotation
													End Site
													{
														OFFSET 0.000000 0.000000 0.000000
													}
												}
											}
										}
									}
								}
							}
						}
					}
					JOINT RightShoulder
					{
						OFFSET -3.249400 8.794197 -1.372250
						CHANNELS 3 Xrotation Yrotation Zrotation
						JOINT RightShoulder_split
						{
							OFFSET -3.249400 8.794197 -1.372250
							CHANNELS 3 Xrotation Yrotation Zrotation
							JOINT RightArm
							{
								OFFSET -11.953299 -2.279007 -0.146200
								CHANNELS 3 Xrotation Yrotation Zrotation
								JOINT RightForeArm
								{
									OFFSET -18.448900 0.000000 0.000000
									CHANNELS 3 Xrotation Yrotation Zrotation
									JOINT RightHand
									{
										OFFSET -29.527802 0.000000 0.000000
										CHANNELS 3 Xrotation Yrotation Zrotation
										JOINT RightHandThumb1
										{
											OFFSET -10.739754 -2.369614 9.225399
											CHANNELS 3 Xrotation Yrotation Zrotation
											JOINT RightHandThumb2
											{
												OFFSET -4.926170 -2.844131 2.844125
												CHANNELS 3 Xrotation Yrotation Zrotation
												JOINT RightHandThumb3
												{
													OFFSET -4.614891 -2.664413 2.664409
													CHANNELS 3 Xrotation Yrotation Zrotation
													JOINT RightHandThumb4
													{
														OFFSET -4.432465 -2.559082 2.559083
														CHANNELS 3 Xrotation Yrotation Zrotation
														End Site
														{
															OFFSET 0.000000 0.000000 0.000000
														}
													}
												}
											}
										}
										JOINT RightHandIndex1
										{
											OFFSET -26.467674 0.187653 6.405298
											CHANNELS 3 Xrotation Yrotation Zrotation
											JOINT RightHandIndex2
											{
												OFFSET -8.792900 0.000000 0.000000
												CHANNELS 3 Xrotation Yrotation Zrotation
												JOINT RightHandIndex3
												{
													OFFSET -10.075203 0.000000 0.000000
													CHANNELS 3 Xrotation Yrotation Zrotation
													End Site
													{
														OFFSET 0.000000 0.000000 0.000000
													}
												}
											}
										}
										JOINT RightHandMiddle1
										{
											OFFSET -25.764404 0.000000 0.000000
											CHANNELS 3 Xrotation Yrotation Zrotation
											JOINT RightHandMiddle2
											{
												OFFSET -9.393974 0.000000 0.000000
												CHANNELS 3 Xrotation Yrotation Zrotation
												JOINT RightHandMiddle3
												{
													OFFSET -10.771950 0.000000 0.000000
													CHANNELS 3 Xrotation Yrotation Zrotation
													End Site
													{
														OFFSET 0.000000 0.000000 0.000000
													}
												}
											}
										}
										JOINT RightHandRing1
										{
											OFFSET -24.660927 0.144547 -6.225808
											CHANNELS 3 Xrotation Yrotation Zrotation
											JOINT RightHandRing2
											{
												OFFSET -9.393799 0.000000 0.000000
												CHANNELS 3 Xrotation Yrotation Zrotation
												JOINT RightHandRing3
												{
													OFFSET -9.928497 0.000000 0.000000
													CHANNELS 3 Xrotation Yrotation Zrotation
													End Site
													{
														OFFSET 0.000000 0.000000 0.000000
													}
												}
											}
										}
										JOINT RightHandPinky1
										{
											OFFSET -23.655350 0.125290 -12.815412
											CHANNELS 3 Xrotation Yrotation Zrotation
											JOINT RightHandPinky2
											{
												OFFSET -8.425102 0.000000 0.000000
												CHANNELS 3 Xrotation Yrotation Zrotation
												JOINT RightHandPinky3
												{
													OFFSET -8.147003 0.000000 0.000000
													CHANNELS 3 Xrotation Yrotation Zrotation
													End Site
													{
														OFFSET 0.000000 0.000000 0.000000
													}
												}
											}
										}
									}
								}
							}
						}
					}
				}
			}
		}
	}
	JOINT LeftUpLeg
	{
		OFFSET 11.394100 -6.187798 -0.413800
		CHANNELS 3 Xrotation Yrotation Zrotation
		JOINT LeftLeg
		{
			OFFSET 0.430247 -32.302673 3.732800
			CHANNELS 3 Xrotation Yrotation Zrotation
			JOINT LeftFoot
			{
				OFFSET -0.430247 -48.264931 -6.423300
				CHANNELS 3 Xrotation Yrotation Zrotation
				JOINT LeftToeBase
				{
					OFFSET 4.230900 -16.068199 23.438400
					CHANNELS 3 Xrotation Yrotation Zrotation
					JOINT LeftToe_End
					{
						OFFSET 4.510700 0.695400 19.974600
						CHANNELS 3 Xrotation Yrotation Zrotation
						End Site
						{
							OFFSET 0.000000 0.000000 0.000000
						}
					}
				}
			}
		}
	}
	JOINT RightUpLeg
	{
		OFFSET -11.333700 -6.187798 -0.413800
		CHANNELS 3 Xrotation Yrotation Zrotation
		JOINT RightLeg
		{
			OFFSET -0.430392 -32.302628 3.733000
			CHANNELS 3 Xrotation Yrotation Zrotation
			JOINT RightFoot
			{
				OFFSET 0.430392 -48.264973 -6.423500
				CHANNELS 3 Xrotation Yrotation Zrotation
				JOINT RightToeBase
				{
					OFFSET -4.230900 -16.068199 23.438400
					CHANNELS 3 Xrotation Yrotation Zrotation
					JOINT RightToe_End
					{
						OFFSET -4.510700 0.695400 19.974600
						CHANNELS 3 Xrotation Yrotation Zrotation
						End Site
						{
							OFFSET 0.000000 0.000000 0.000000
						}
					}
				}
			}
		}
	}
}
MOTION
Frames: 4
Frame Time: 0.016667
-0.118343 98.576828 0.729728 -0.587373 -0.362627 -0.337918 0.361308 -0.186751 0.289917 -1.750145 -0.199001 0.196420 0.000000 0.000000 0.000000 -1.750109 -0.188404 0.203701 -0.289761 -0.205837 -0.385588 4.702786 -2.136756 3.065841 0.000000 -0.000000 -0.000000 0.993407 -13.202429 -11.017493 0.000000 0.000000 0.000000 16.778882 -19.384210 -67.597378 0.000006 -17.727283 -0.000001 -41.262225 6.787872 3.627200 -5.917891 16.359053 4.033987 -3.203479 11.997062 3.444680 -3.261089 13.950622 3.246349 -0.000000 -0.000004 -0.000000 0.260632 1.880088 -15.783536 0.260634 1.880095 -15.783611 -0.000000 -0.000000 -0.000004 0.523425 2.637840 -22.443076 0.524901 2.641405 -22.475117 -0.000000 -0.000000 0.000003 0.898045 3.405136 -29.540957 0.898046 3.405135 -29.540988 -0.000000 0.000000 -0.000002 2.843609 6.562538 -31.481909 1.050194 -0.422463 -32.253612 0.000000 0.000000 0.000001 1.651817 9.058840 10.503891 0.000000 0.000000 0.000000 6.412951 25.534618 64.587491 -0.000008 12.370163 0.000007 -21.507981 -14.216153 -3.290094 7.843967 -10.746967 2.716234 0.430933 -17.559395 -11.583992 6.895765 -19.300988 -4.640275 0.000002 0.000002 0.000001 0.528295 -2.663085 22.437122 0.528292 -2.663089 22.437132 0.000001 -0.000001 -0.000004 1.160567 -3.851149 33.530102 1.160562 -3.851139 33.530109 0.000000 -0.000000 -0.000000 1.843403 -4.719922 42.648412 1.843409 -4.719924 42.648446 -0.000001 0.000001 -0.000001 1.994910 -4.878720 44.459091 1.994914 -4.878720 44.459122 0.000000 0.000001 -0.000000 -14.137161 4.482389 8.449928 26.313918 4.047045 1.357162 -10.893059 1.348308 -9.490065 0.000002 -0.000002 -0.000003 -0.000000 0.000000 0.000000 -13.595930 1.524212 -1.865237 26.676419 -1.699284 -2.522909 -12.381372 -0.781979 5.346689 -0.000027 0.000001 -0.000000 -0.000000 -0.000000 -0.000000 
-0.095550 98.585564 0.715677 -0.575606 -0.344476 -0.302728 0.375093 -0.165905 0.268748 -1.755795 -0.176235 0.190827 0.000000 0.000000 0.000000 -1.755715 -0.166635 0.197366 -0.262666 -0.209938 -0.406779 4.752852 -2.162302 3.061369 0.000000 0.000000 -0.000000 0.994043 -13.267618 -11.041537 0.000000 0.000000 0.000000 16.766359 -19.385895 -67.571294 -0.000008 -17.712817 -0.000009 -41.267115 6.584303 3.801893 -5.917885 16.359051 4.033981 -3.203488 11.997054 3.444712 -3.261086 13.950637 3.246329 -0.000000 -0.000001 0.000000 0.260632 1.880088 -15.783536 0.260633 1.880095 -15.783587 -0.000000 0.000000 -0.000003 0.523426 2.637841 -22.443085 0.524900 2.641406 -22.475084 -0.000000 0.000000 -0.000003 0.898046 3.405138 -29.540978 0.898045 3.405136 -29.540968 -0.000000 -0.000000 0.000005 2.843609 6.562538 -31.481896 1.050195 -0.422462 -32.253615 0.000000 0.000000 -0.000001 1.651098 9.037779 10.513389 0.000000 0.000000 0.000000 6.473518 25.519858 64.541401 -0.000001 12.373796 0.000003 -21.518702 -14.342738 -3.277703 7.843971 -10.746965 2.716238 0.430940 -17.559395 -11.583993 6.895778 -19.300981 -4.640251 0.000003 0.000002 0.000006 0.528293 -2.663085 22.437122 0.528293 -2.663086 22.437124 0.000000 -0.000001 -0.000003 1.160563 -3.851142 33.530099 1.160565 -3.851152 33.530112 -0.000000 -0.000001 0.000004 1.843403 -4.719922 42.648435 1.843404 -4.719919 42.648429 0.000001 0.000001 -0.000001 1.994910 -4.878714 44.459095 1.994910 -4.878723 44.459132 -0.000000 0.000001 -0.000000 -14.148313 4.525337 8.376506 26.280772 4.011230 1.401198 -10.869782 1.345953 -9.499646 -0.000017 -0.000000 0.000024 0.000000 -0.000000 0.000000 -13.609728 1.500543 -1.953146 26.667350 -1.702678 -2.479865 -12.366338 -0.783601 5.349676 -0.000057 0.000001 -0.000004 -0.000000 0.000000 0.000000 
-0.059149 98.591263 0.702430 -0.563345 -0.331110 -0.253284 0.389143 -0.144628 0.244500 -1.758987 -0.152911 0.185722 0.000000 0.000000 0.000000 -1.758853 -0.144486 0.191302 -0.234934 -0.223743 -0.429562 4.682464 -2.228106 3.016739 -0.000000 -0.000000 0.000000 0.994575 -13.331118 -11.067193 0.000000 0.000000 0.000000 16.711233 -19.428801 -67.559409 0.000005 -17.694300 -0.000001 -41.232834 6.340760 3.993479 -5.917891 16.359053 4.033980 -3.203481 11.997058 3.444692 -3.261096 13.950625 3.246358 -0.000000 -0.000001 0.000001 0.260631 1.880087 -15.783543 0.260634 1.880095 -15.783585 -0.000000 0.000000 -0.000002 0.523426 2.637838 -22.443081 0.524901 2.641406 -22.475115 0.000000 -0.000000 0.000002 0.898046 3.405136 -29.540971 0.898045 3.405137 -29.540947 0.000000 0.000000 -0.000000 2.843610 6.562538 -31.481886 1.050196 -0.422464 -32.253615 0.000000 0.000000 -0.000001 1.655696 9.081050 10.518683 0.000000 0.000000 0.000000 6.559968 25.463661 64.487313 0.000001 12.345266 0.000002 -21.449297 -14.196716 -3.323742 7.843966 -10.746965 2.716245 0.430933 -17.559395 -11.583989 6.895783 -19.300986 -4.640261 0.000001 -0.000000 0.000002 0.528293 -2.663085 22.437118 0.528294 -2.663086 22.437118 -0.000001 -0.000001 -0.000002 1.160563 -3.851143 33.530112 1.160562 -3.851146 33.530095 -0.000000 -0.000002 -0.000001 1.843404 -4.719916 42.648446 1.843403 -4.719921 42.648432 -0.000000 -0.000000 -0.000002 1.994909 -4.878718 44.459108 1.994911 -4.878716 44.459139 -0.000001 -0.000001 -0.000000 -14.161712 4.574681 8.277102 26.258413 3.979995 1.448003 -10.855559 1.341860 -9.504858 -0.000024 -0.000001 0.000028 0.000000 -0.000000 0.000000 -13.637034 1.469412 -2.077771 26.680010 -1.680304 -2.424045 -12.359809 -0.786527 5.354447 -0.000082 -0.000000 0.000006 0.000000 -0.000000 0.000000 
-0.011390 98.604454 0.684933 -0.547723 -0.345708 -0.190170 0.417387 -0.116516 0.213162 -1.760835 -0.122205 0.183156 0.000000 0.000000 0.000000 -1.760679 -0.115203 0.187763 -0.200768 -0.240773 -0.429505 4.617258 -2.258966 2.936578 0.000000 -0.000000 -0.000000 0.993603 -13.360153 -11.115199 0.000000 0.000000 0.000000 16.611222 -19.504155 -67.520436 -0.000003 -17.678773 -0.000013 -41.176547 6.072792 4.205078 -5.917888 16.359041 4.033998 -3.203481 11.997064 3.444667 -3.261091 13.950620 3.246356 0.000002 0.000002 0.000001 0.260633 1.880086 -15.783510 0.260633 1.880095 -15.783614 0.000000 -0.000000 0.000001 0.523427 2.637840 -22.443069 0.524900 2.641403 -22.475110 -0.000000 0.000000 0.000003 0.898045 3.405134 -29.540951 0.898045 3.405138 -29.540981 0.000000 -0.000000 0.000001 2.843607 6.562534 -31.481872 1.050196 -0.422463 -32.253632 -0.000000 -0.000000 -0.000000 1.663817 9.137676 10.542184 0.000000 0.000000 0.000000 6.627467 25.453458 64.389259 0.000001 12.280780 0.000013 -21.391203 -14.081760 -3.324090 7.843971 -10.746964 2.716249 0.430940 -17.559395 -11.583971 6.895770 -19.300986 -4.640273 0.000001 -0.000002 0.000000 0.528293 -2.663082 22.437149 0.528294 -2.663092 22.437112 -0.000001 0.000000 0.000001 1.160566 -3.851142 33.530109 1.160564 -3.851145 33.530102 -0.000001 -0.000001 -0.000001 1.843405 -4.719917 42.648442 1.843405 -4.719920 42.648432 0.000001 0.000000 0.000001 1.994909 -4.878712 44.459132 1.994906 -4.878720 44.459115 0.000000 -0.000002 -0.000001 -14.147314 4.610797 8.177112 26.201258 3.986627 1.449930 -10.828301 1.339443 -9.494101 -0.000000 -0.000002 0.000001 0.000000 -0.000000 -0.000000 -13.663171 1.482789 -2.226514 26.671173 -1.644976 -2.354710 -12.336076 -0.789713 5.363196 -0.000047 0.000001 0.000002 -0.000000 0.000000 -0.000000 
